# xmcd
#
# Track frame offsets: 
#        150
#        11902
#        37492
#        55538
#        75472
#        91879
#        123854
#        145916
#        167499
#        198845
#        216422
#        232071
#        245465
#        260150
#        280189
#        299345
#        335589
#
# Disc length: 4740 seconds
#
# Revision: 1
# Processed by: cddbd v1.5.2PL0 Copyright (c) Steve Scherf et al.
# Submitted via: ExactAudioCopyFreeDBPlugin 1.0
#
DISCID=00128211
DTITLE=Various Artist - Legends: Get It On [Audio Fidelity SACD AFZ 1
DTITLE=79]
DYEAR=2014
DGENRE=Rock
TTITLE0=The Troggs - Wild Thing
TTITLE1=Deep Purple - Smoke On The Water
TTITLE2=Norman Greenbaum - Spirit In The Sky
TTITLE3=T. Rex - Bang A Gong (Get It On)
TTITLE4=Fleetwood Mac - Go Your Own Way
TTITLE5=Manfred Mann's Earth Band - Blinded By The Light
TTITLE6=Eric Burdon and War - Spill The Wine
TTITLE7=The Kinks - Lola (Live)
TTITLE8=The Doors - Light My Fire
TTITLE9=Foghat - Slow Ride
TTITLE10=Alice Cooper - School's Out
TTITLE11=Brownsville Station - Smokin' In The Boys Room
TTITLE12=Doobie Brothers - China Grove
TTITLE13=Foreigner - Hot Blooded
TTITLE14=Bad Company - Can't Get Enough
TTITLE15=Lynyrd Skynyrd - Free Bird
TTITLE16=Grateful Dead - Casey Jones
EXTD=
EXTT0=
EXTT1=
EXTT2=
EXTT3=
EXTT4=
EXTT5=
EXTT6=
EXTT7=
EXTT8=
EXTT9=
EXTT10=
EXTT11=
EXTT12=
EXTT13=
EXTT14=
EXTT15=
EXTT16=
PLAYORDER=
